<?xml version="1.0" encoding="UTF-8"?>
<svg xmlns="http://www.w3.org/2000/svg" viewBox="0 0 1500 1500">
  <defs>
    <style>
      .cls-1 {
        fill-rule: evenodd;
        stroke-width: 15px;
      }

      .cls-1, .cls-2, .cls-3, .cls-4, .cls-5 {
        stroke-miterlimit: 10;
      }

      .cls-1, .cls-6 {
        fill: #fff;
      }

      .cls-1, .cls-4 {
        stroke: #93bcd3;
      }

      .cls-2 {
        stroke-width: 5px;
      }

      .cls-2, .cls-3, .cls-4, .cls-5 {
        fill: none;
      }

      .cls-2, .cls-3, .cls-5 {
        stroke: #29166f;
      }

      .cls-6, .cls-7 {
        stroke-width: 0px;
      }

      .cls-7 {
        fill: #db251d;
      }

      .cls-3, .cls-4 {
        stroke-width: 40px;
      }

      .cls-5 {
        stroke-width: 20px;
      }
    </style>
  </defs>
  <g id="_Белый_эллипс_2022" data-name="Белый эллипс 2022">
    <circle id="_Эллипс_белая_основа" data-name="&amp;lt;Эллипс&amp;gt; белая основа" class="cls-6" cx="752" cy="750" r="735"/>
  </g>
  <g id="_Основа_логотипа_2022" data-name="Основа логотипа 2022">
    <circle id="_Эллипс_голубой_малый" data-name="&amp;lt;Эллипс&amp;gt; голубой малый" class="cls-4" cx="750.5" cy="750.5" r="501.5"/>
    <circle id="_Эллипс_голубой" data-name="&amp;lt;Эллипс&amp;gt; голубой" class="cls-4" cx="750.5" cy="750.5" r="639.5"/>
    <circle id="_Эллипс_синий_тонкий_бортик" data-name="&amp;lt;Эллипс&amp;gt; синий тонкий бортик" class="cls-2" cx="750.5" cy="750.5" r="735"/>
    <circle id="_Эллипс_синий_основной" data-name="&amp;lt;Эллипс&amp;gt; синий основной" class="cls-3" cx="750.99" cy="750.99" r="677.17"/>
  </g>
  <g id="_Содержимое" data-name="Содержимое">
    <path class="cls-5" d="M1133.33,800v-100h-91.5c-7.69-39.83-23.33-77.69-46-111.33l64.67-64.5-84.67-84.67-64.5,64.67c-33.64-22.67-71.51-38.31-111.33-46v-91.5h-100v91.5c-39.83,7.69-77.69,23.33-111.33,46l-64.5-64.67-84.67,84.67,64.67,64.5c-22.67,33.64-38.31,71.51-46,111.33h-91.5v100h91.5c7.69,39.83,23.33,77.69,46,111.33l-64.67,64.5,84.67,84.67,64.5-64.67c33.64,22.67,71.51,38.31,111.33,46v91.5h100v-91.5c39.83-7.69,77.69-23.33,111.33-46l64.5,64.67,84.67-84.67-64.67-64.5c22.67-33.64,38.31-71.51,46-111.33h91.5Z"/>
    <path class="cls-5" d="M900,750c0,2.43-.06,4.85-.18,7.25-3.77,79.47-69.41,142.75-149.82,142.75-28.47,0-55.08-7.93-77.76-21.71-22.65-13.75-41.37-33.34-54.06-56.67-11.6-21.28-18.18-45.68-18.18-71.62,0-77.7,59.08-141.61,134.77-149.24,5.01-.5,10.09-.76,15.23-.76,26.53,0,51.45,6.89,73.06,18.97,22.45,12.54,41.34,30.68,54.78,52.53,14.05,22.83,22.16,49.72,22.16,78.5Z"/>
    <path class="cls-1" d="M906.03,753.05c-2.03,1.48-4.1,2.88-6.21,4.2-33.23,20.93-75.53,23.09-111.8,5.26l-115.78,115.78c-22.65-13.75-41.37-33.34-54.06-56.67l114.5-114.5c-16.85-34.33-15.81-74.05,2.09-106.36,2.21-3.99,4.68-7.88,7.41-11.62,24.77-34.04,66.63-51.19,108.84-44.6,7.25,1.12,13.35,6.23,15.75,13.2,2.4,6.97.68,14.61-4.44,19.72l-35.11,35.12c-1.83,1.83-3.23,4.01-4.16,6.39-.71,1.81-1.14,3.74-1.27,5.73l-2.02,30.73c-.37,5.72,1.83,11.37,6,15.42,4.17,4.04,9.89,6.07,15.59,5.52l29.48-2.77c2.47-.24,4.85-.96,7-2.1,1.65-.87,3.16-1.98,4.5-3.31l35.33-35.33c5.12-5.12,12.75-6.84,19.72-4.44,6.98,2.4,12.09,8.49,13.21,15.75,6.62,42.22-10.53,84.1-44.57,108.88Z"/>
    <path class="cls-5" d="M600,750c0,82.91,67.09,150,150,150"/>
  </g>
  <g id="_Текст_логотипа_2024_рус_кривые_" data-name="Текст логотипа 2024 (рус) (кривые)">
    <g>
      <path class="cls-7" d="M220.51,873.93l-1.42-5.13,29.36-8.1,2.84,10.3-16.52,4.56,12.23,44.32-75.9,20.95-3.46-12.53,63.06-17.41-6.75-24.44-63.06,17.41-3.46-12.53,63.06-17.41Z"/>
      <path class="cls-7" d="M230.06,854.25l-77.91,11.43-6.96-47.4,13.18-1.93,5.07,34.54,17.27-2.53-4.71-32.1,13.13-1.93,4.71,32.1,21.15-3.1-5.24-35.71,13.18-1.93,7.13,48.57Z"/>
      <path class="cls-7" d="M221.8,792.49l-78.72,1.91-.31-12.99,30.98-.75-.62-25.61-30.98.75-.31-12.99,78.72-1.91.31,12.99-34.42.83.62,25.61,34.42-.83.31,12.99Z"/>
      <path class="cls-7" d="M222.68,710.74l-65.14-6-1.76,19.09-13.26-1.22,4.7-51.08,13.26,1.22-1.75,19.04,65.14,6-1.19,12.94Z"/>
      <path class="cls-7" d="M227.33,668.13l-77.09-16.03,4.27-20.51c1.59-7.64,3-12.56,4.22-14.76,1.97-3.5,5.16-6.07,9.56-7.7,4.4-1.63,9.67-1.8,15.8-.53,5.57,1.16,10.03,3.18,13.36,6.07,3.33,2.89,5.43,6.07,6.3,9.54.87,3.47.5,9.07-1.1,16.78l-1.74,8.36,29.08,6.05-2.65,12.73ZM165.92,642.08l21.93,4.56,1.47-7.06c.99-4.74,1.32-8.04,1.01-9.88-.31-1.84-1.23-3.49-2.74-4.94-1.51-1.45-3.53-2.44-6.06-2.97-2.56-.53-4.84-.42-6.83.34-1.99.76-3.46,1.9-4.4,3.43s-1.97,4.96-3.08,10.3l-1.29,6.22Z"/>
      <path class="cls-7" d="M249.38,580.11l-73.06-29.36,4.63-11.51,48.69,19.57-38.94-43.84,4.87-12.11,73.06,29.36-4.63,11.51-47.64-19.15,37.9,43.39-4.88,12.14Z"/>
      <path class="cls-7" d="M275.24,518.35l-68.75-38.39,6.34-11.35,27.06,15.11,12.49-22.37-27.06-15.11,6.34-11.35,68.75,38.39-6.34,11.35-30.06-16.79-12.49,22.37,30.06,16.79-6.34,11.35Z"/>
      <path class="cls-7" d="M268.71,382.14l6.22,4.69c12.07-14.44,25.96-15.73,41.68-3.87,15.69,11.84,18.24,25.55,7.66,41.11l7.29,5.5-7.83,10.37-7.29-5.5c-11.98,14.38-25.82,15.64-41.54,3.77-15.75-11.89-18.35-25.56-7.8-41.02l-6.22-4.69,7.83-10.37ZM305.81,426.42l-28.08-21.2c-6.15,8.15-4.51,15.78,4.92,22.9,9.29,7.01,17.01,6.44,23.15-1.7ZM285.56,394.85l28.08,21.2c6.19-8.2,4.54-15.88-4.94-23.05-9.23-6.97-16.94-6.35-23.13,1.85Z"/>
      <path class="cls-7" d="M327.57,372.49c-6.62-6.65-11.08-13.11-13.39-19.37-2.31-6.26-2.93-12.02-1.85-17.29,1.08-5.26,3.88-10.14,8.39-14.64,6.55-6.52,14.37-9.32,23.47-8.43,9.1.9,18.25,5.97,27.44,15.21,9.29,9.34,14.37,18.81,15.23,28.41.79,8.46-2.11,15.96-8.68,22.5-6.63,6.59-14.14,9.5-22.54,8.71-9.59-.91-18.95-5.95-28.06-15.11ZM336.71,362.64c6.39,6.42,12.4,10.03,18.04,10.81,5.64.78,10.26-.62,13.87-4.21,3.64-3.62,5.06-8.21,4.28-13.77-.78-5.56-4.45-11.64-11.02-18.25-6.44-6.47-12.36-10.1-17.77-10.88-5.41-.78-9.99.7-13.75,4.44-3.76,3.74-5.27,8.35-4.53,13.83.74,5.47,4.37,11.49,10.88,18.04Z"/>
      <path class="cls-7" d="M408.97,348.16l-48.06-62.37,16.59-12.79c6.18-4.76,10.45-7.58,12.81-8.45,3.78-1.37,7.87-1.25,12.26.38,4.4,1.63,8.51,4.93,12.33,9.89,3.48,4.51,5.54,8.95,6.18,13.31.65,4.36.17,8.14-1.43,11.34s-5.52,7.21-11.76,12.01l-6.77,5.21,18.13,23.53-10.3,7.93ZM379.34,288.41l13.67,17.74,5.71-4.4c3.84-2.96,6.24-5.24,7.2-6.84.96-1.6,1.34-3.45,1.14-5.53-.2-2.09-1.09-4.15-2.67-6.2-1.6-2.08-3.4-3.47-5.41-4.19-2.01-.72-3.86-.81-5.57-.26-1.71.55-4.72,2.48-9.04,5.81l-5.03,3.88Z"/>
      <path class="cls-7" d="M458.37,310.7l-39.49-68.12,16.86-9.78,37.12,40.63-16.89-52.36,16.94-9.82,39.49,68.12-10.5,6.09-31.11-53.67,19.98,60.13-10.85,6.29-42.16-47.26,31.11,53.67-10.5,6.09Z"/>
      <path class="cls-7" d="M579.72,251.09l-13.08,5.36-11.99-14.36-23.92,9.8,1.82,18.52-12.82,5.25-6.59-82.39,12.78-5.24,53.81,63.05ZM545.71,231.35l-19.33-23.66,2.99,30.35,16.34-6.7Z"/>
      <path class="cls-7" d="M634.71,222.44l5.14-1.37,7.84,29.43-10.33,2.75-4.41-16.56-44.43,11.84-20.28-76.08,12.56-3.35,16.85,63.21,24.5-6.53-16.85-63.21,12.56-3.35,16.85,63.21Z"/>
      <path class="cls-7" d="M654.2,232.08l-10.41-78.05,12.3-1.64,6.94,52.01,18.99-55.47,12.94-1.73,10.41,78.05-12.3,1.64-6.79-50.9-19.1,54.35-12.97,1.73Z"/>
      <path class="cls-7" d="M717.5,185.61c-.15-9.38,1.11-17.13,3.79-23.24,2.68-6.11,6.23-10.69,10.66-13.74,4.43-3.04,9.83-4.62,16.2-4.72,9.24-.15,16.82,3.25,22.75,10.21,5.93,6.96,9,16.96,9.22,29.99.21,13.18-2.7,23.52-8.74,31.03-5.3,6.64-12.59,10.03-21.86,10.18-9.34.15-16.77-2.97-22.28-9.36-6.28-7.31-9.52-17.43-9.73-30.35ZM730.92,184.85c.15,9.06,1.98,15.82,5.49,20.3,3.52,4.47,7.82,6.67,12.91,6.59,5.13-.08,9.34-2.4,12.64-6.95,3.3-4.55,4.87-11.48,4.72-20.78-.15-9.13-1.9-15.85-5.25-20.17-3.35-4.31-7.68-6.43-12.99-6.34-5.31.09-9.59,2.36-12.85,6.82-3.26,4.46-4.82,11.31-4.67,20.54Z"/>
      <path class="cls-7" d="M792.81,225.01l10.02-78.1,12.89,1.65-3.94,30.74,25.41,3.26,3.94-30.74,12.89,1.65-10.02,78.1-12.89-1.65,4.38-34.15-25.41-3.26-4.38,34.15-12.89-1.65Z"/>
      <path class="cls-7" d="M859.27,234.51l19.85-76.2,12.58,3.28-7.81,29.99,24.79,6.46,7.81-29.99,12.58,3.28-19.85,76.2-12.58-3.28,8.68-33.32-24.79-6.46-8.68,33.32-12.58-3.28Z"/>
      <path class="cls-7" d="M924.07,251.62l31.05-72.36,11.95,5.13-12.35,28.78,16.98,7.29c6.32,2.71,10.46,6.89,12.41,12.55,1.96,5.65,1.51,11.8-1.34,18.45-2.33,5.43-5.94,9.71-10.84,12.86-4.89,3.14-11.17,3.07-18.84-.22l-29.02-12.45ZM949.46,225.4l-8.2,19.1,12.61,5.41c3.28,1.41,5.75,2.21,7.4,2.39,1.65.18,3.38-.31,5.19-1.49,1.81-1.17,3.17-2.83,4.09-4.97,2.75-6.42.09-11.36-7.99-14.82l-13.1-5.62ZM983.1,276.95l31.05-72.36,11.94,5.13-31.05,72.36-11.95-5.13Z"/>
      <path class="cls-7" d="M1001.61,286.23l40.46-23.24,2.48-42.79,12.98,7.97-1.42,26.77,23.28-13.34,12.85,7.89-36.99,21.49-2.48,46.68-13.4-8.23,1.75-30.24-26.21,15.23-13.32-8.18Z"/>
      <path class="cls-7" d="M1093.47,350l43-49.31-14.45-12.6,8.75-10.04,38.66,33.71-8.75,10.04-14.41-12.57-43,49.31-9.8-8.54Z"/>
      <path class="cls-7" d="M1125.33,378.75l58.08-53.17,32.35,35.34-9.83,8.99-23.57-25.75-12.88,11.79,21.91,23.93-9.79,8.96-21.9-23.93-15.77,14.43,24.37,26.62-9.83,8.99-33.15-36.21Z"/>
      <path class="cls-7" d="M1162.94,420.04l46.3-5.84,18.79-38.52,8.9,12.36-11.64,24.15,26.63-3.33,8.81,12.24-42.41,5.56-20.29,42.11-9.19-12.76,13.28-27.23-30.05,3.94-9.13-12.68Z"/>
      <path class="cls-7" d="M1202.53,476.37l69.03-37.88,6.25,11.4-27.17,14.91,12.33,22.46,27.17-14.91,6.25,11.4-69.03,37.88-6.25-11.4,30.18-16.56-12.33-22.46-30.18,16.56-6.25-11.4Z"/>
      <path class="cls-7" d="M1269.36,519.02c8.75-3.39,16.45-4.89,23.11-4.5,6.66.39,12.19,2.14,16.58,5.24,4.39,3.1,7.74,7.62,10.04,13.56,3.34,8.61,2.77,16.91-1.7,24.88-4.47,7.98-12.79,14.32-24.94,19.03-12.29,4.76-23,5.61-32.13,2.55-8.06-2.67-13.77-8.33-17.12-16.98-3.38-8.71-3.02-16.76,1.07-24.15,4.68-8.42,13.05-14.97,25.11-19.64ZM1274.72,531.34c-8.45,3.27-14.16,7.34-17.14,12.18-2.98,4.85-3.55,9.64-1.71,14.39,1.85,4.78,5.48,7.93,10.89,9.45s12.45.6,21.13-2.77c8.51-3.3,14.21-7.27,17.1-11.91,2.89-4.64,3.37-9.43,1.45-14.38-1.92-4.95-5.53-8.18-10.85-9.7-5.31-1.52-12.28-.61-20.89,2.73Z"/>
      <path class="cls-7" d="M1267.75,639.08l63.56-15.49-4.58-18.79-32.69,7.97c-8.52,2.08-14.88,3.36-19.09,3.85-4.21.49-7.61.01-10.21-1.44-2.6-1.45-4.44-4.38-5.51-8.8-.31-1.29-.79-3.99-1.42-8.11l12.05-2.94.67,2.77c.66,2.71,1.54,4.39,2.63,5.02,1.09.64,3.4.53,6.91-.33l56.51-13.77,10.73,44.04-76.5,18.65-3.08-12.63Z"/>
      <path class="cls-7" d="M1312.12,660.11c9.33-1.02,17.16-.48,23.49,1.62,6.33,2.1,11.22,5.21,14.66,9.34,3.44,4.13,5.51,9.36,6.2,15.69,1,9.18-1.69,17.05-8.07,23.6-6.38,6.55-16.05,10.53-29.01,11.95-13.1,1.43-23.67-.51-31.7-5.83-7.1-4.66-11.16-11.61-12.16-20.82-1.01-9.29,1.41-16.98,7.26-23.05,6.7-6.93,16.47-11.09,29.33-12.5ZM1314.11,673.4c-9.01.98-15.57,3.43-19.7,7.35-4.13,3.91-5.92,8.4-5.36,13.46.56,5.1,3.25,9.08,8.08,11.94,4.83,2.86,11.88,3.79,21.13,2.78,9.08-.99,15.61-3.36,19.59-7.09,3.99-3.74,5.69-8.24,5.12-13.52s-3.23-9.33-7.97-12.17c-4.74-2.84-11.7-3.75-20.89-2.75Z"/>
      <path class="cls-7" d="M1280.3,739.16l78.08,1.27-.74,45.43-13.32-.22.53-32.44-64.77-1.05.21-13Z"/>
      <path class="cls-7" d="M1278.98,795.54l78.11,9.97-1.57,12.31-52.05-6.64,48.74,32.59-1.65,12.95-78.11-9.97,1.57-12.31,50.93,6.5-47.63-32.42,1.66-12.98Z"/>
      <path class="cls-7" d="M1269.55,861.81l76.22,19.77-3.12,12.01-50.79-13.18,44.23,38.5-3.28,12.63-76.22-19.77,3.12-12.01,49.7,12.89-43.14-38.18,3.29-12.67ZM1357.53,919.48l-1.51,5.82c-4.77-1.57-8.15-3.92-10.13-7.04-1.98-3.12-2.5-6.5-1.56-10.14.94-3.64,3.04-6.34,6.29-8.11s7.35-2.19,12.29-1.28l-1.51,5.82c-5.11-.84-8.25,1-9.43,5.54-1.18,4.54.67,7.67,5.56,9.38Z"/>
    </g>
    <g>
      <path class="cls-7" d="M275.99,1133.11l59.23-51.88,31.81,36.32-10.02,8.78-23.25-26.54-13.54,11.86,12.17,13.9c4.6,5.25,6.57,10.81,5.92,16.66s-3.67,11.14-9.06,15.86c-4.69,4.11-9.94,6.46-15.75,7.05-5.81.59-11.41-2.18-16.79-8.32l-20.74-23.68ZM310.21,1120.42l-15.64,13.7,9.04,10.32c2.35,2.69,4.24,4.47,5.65,5.35,1.41.88,3.17,1.19,5.28.93,2.11-.26,4.04-1.15,5.79-2.68,5.31-4.65,5.06-10.28-.73-16.89l-9.4-10.73Z"/>
      <path class="cls-7" d="M378.04,1233.72l-10.7-9.23,7.36-17.2-19.57-16.88-15.69,10.02-10.5-9.05,70.46-43.21,10.46,9.02-31.82,76.53ZM380.22,1194.46l12.33-27.95-25.71,16.42,13.38,11.53Z"/>
      <path class="cls-7" d="M400.61,1249.99l42.58-66.24,40.62,26.11-7.2,11.21-29.68-19.08-9.73,15.14,15.54,9.99c5.87,3.78,9.31,8.57,10.3,14.38s-.45,11.73-4.32,17.75c-3.37,5.24-7.77,8.95-13.19,11.13s-11.57,1.06-18.43-3.36l-26.48-17.02ZM429.98,1228.33l-11.24,17.49,11.54,7.42c3.01,1.93,5.31,3.12,6.91,3.58,1.6.45,3.38.27,5.33-.56,1.96-.83,3.56-2.22,4.82-4.18,3.81-5.93,2.02-11.28-5.37-16.03l-11.99-7.71Z"/>
      <path class="cls-7" d="M473.65,1294.12l32.87-71.55,11.27,5.18-21.9,47.69,45.67-36.77,11.86,5.45-32.87,71.55-11.27-5.18,21.43-46.66-45.17,35.76-11.89-5.46Z"/>
      <path class="cls-7" d="M552.43,1327.66l22.44-75.48,12.46,3.7-8.83,29.71,24.56,7.3,8.83-29.71,12.46,3.7-22.44,75.48-12.46-3.7,9.81-33-24.56-7.3-9.81,33-12.46-3.7Z"/>
      <path class="cls-7" d="M635.38,1349.8l11.57-77.89,12.27,1.82-7.71,51.91,33.58-48.06,12.91,1.92-11.57,77.89-12.27-1.82,7.54-50.79-33.39,46.95-12.94-1.92Z"/>
      <path class="cls-7" d="M718.97,1309.18l.46-28.14,13,.21-.34,20.89c-.07,4.37.06,7.62.41,9.76.34,2.14,1.37,3.95,3.08,5.45,1.71,1.5,4.41,2.27,8.1,2.33,5.51.09,9.94-1.27,13.28-4.08l.55-33.94,13,.21-1.28,78.73-13-.21.51-31.69c-5.17,2.71-10.33,4.02-15.48,3.94-7.16-.12-12.69-2.22-16.6-6.31-3.91-4.09-5.8-9.81-5.68-17.15Z"/>
      <path class="cls-7" d="M841.27,1324.5l13.14,3.23c-.82,8.99-3.25,15.79-7.27,20.41-4.03,4.62-9.36,7.36-16,8.21-8.35,1.08-15.53-1.26-21.54-7.02-6.92-6.65-11.2-16.28-12.83-28.89-1.72-13.32-.07-24.13,4.97-32.43,4.38-7.21,10.98-11.38,19.79-12.52,7.18-.93,13.5.75,18.97,5.02,3.9,3.04,7.09,7.88,9.58,14.52l-12.3,5.38c-1.37-4.12-3.41-7.15-6.14-9.09s-5.75-2.7-9.05-2.27c-4.73.61-8.33,3.17-10.78,7.68-2.46,4.51-3.07,11.5-1.84,20.98,1.27,9.84,3.63,16.64,7.08,20.42,3.45,3.78,7.5,5.37,12.15,4.77,3.41-.44,6.18-2.14,8.33-5.11,2.14-2.97,3.39-7.4,3.75-13.29Z"/>
      <path class="cls-7" d="M888.34,1345.03l-20.3-76.08,12.56-3.35,8.64,32.38c2.71-1.09,4.4-2.55,5.06-4.38.66-1.83,1.09-5.92,1.29-12.27.2-6.35.89-11.12,2.07-14.31,1.19-3.19,2.77-5.36,4.76-6.52,1.99-1.16,5.56-2.56,10.72-4.2l3.05,11.42-1.76.47c-3.56.95-5.75,2.42-6.57,4.4s-1.27,5.5-1.36,10.56c-.08,5.06-.39,8.49-.93,10.3-.54,1.81-1.66,3.75-3.36,5.83,3.07.41,5.83,1.66,8.26,3.76,2.43,2.1,5.68,5.83,9.74,11.2l14.06,18.54-14.78,3.95-12.78-17.66c-3.24-4.51-5.81-7.57-7.71-9.2-1.9-1.62-4.22-2.11-6.97-1.45l8.88,33.26-12.56,3.35Z"/>
      <path class="cls-7" d="M1014.08,1301.56l-13.05,5.42-12.06-14.3-23.87,9.91,1.9,18.52-12.8,5.31-6.96-82.36,12.75-5.29,54.08,62.81ZM979.99,1281.98l-19.43-23.57,3.12,30.34,16.31-6.77Z"/>
      <path class="cls-7" d="M1072.11,1268.94l-16.75-28.28-2.31,1.37c-2.59,1.53-4.32,2.9-5.19,4.1-.87,1.2-1.43,2.78-1.68,4.74-.25,1.96-.26,6.47-.03,13.53l.62,19.55-13.38,7.93-1.08-17.21c-.43-6.9-.46-11.85-.11-14.83.36-2.98,1.23-6.04,2.61-9.19-5.18,1.94-9.99,2.05-14.45.32s-8.26-5.24-11.4-10.54c-2.48-4.19-3.78-8.28-3.9-12.27-.12-3.99.76-7.36,2.63-10.11s5.82-5.91,11.86-9.49l23.61-13.99,40.13,67.75-11.18,6.62ZM1038.77,1212.65l-8.78,5.2c-5.02,2.97-7.96,4.94-8.8,5.9-1.19,1.37-1.82,2.96-1.91,4.78-.09,1.82.51,3.81,1.79,5.97,1.33,2.25,2.83,3.8,4.5,4.64,1.67.85,3.32,1.08,4.97.71,1.65-.37,5.02-2.07,10.1-5.08l8.32-4.93-10.18-17.19Z"/>
      <path class="cls-7" d="M1154.07,1168.62l12.61-4.92c4.5,7.83,6.43,14.78,5.8,20.88-.63,6.09-3.42,11.4-8.35,15.93-6.2,5.68-13.42,7.9-21.66,6.66-9.49-1.45-18.53-6.87-27.12-16.24-9.07-9.9-13.94-19.69-14.6-29.38-.57-8.42,2.43-15.63,8.98-21.63,5.34-4.89,11.47-7.16,18.4-6.81,4.93.24,10.33,2.36,16.19,6.37l-6.96,11.48c-3.49-2.58-6.9-3.88-10.25-3.9-3.35-.02-6.25,1.1-8.71,3.36-3.52,3.22-4.98,7.38-4.4,12.48.59,5.1,4.11,11.17,10.57,18.22,6.7,7.31,12.55,11.52,17.54,12.63,5,1.11,9.22.07,12.68-3.1,2.53-2.32,3.82-5.31,3.87-8.97.05-3.66-1.48-8-4.58-13.03Z"/>
      <path class="cls-7" d="M1206.51,1157.25l-61.95-48.61,8.02-10.23,51.47,40.38,11.6-14.79-51.47-40.38,8.02-10.23,51.47,40.38,11.87-15.13-51.47-40.38,8.02-10.23,61.95,48.61-47.55,60.59Z"/>
    </g>
  </g>
</svg>