<?xml version="1.0" encoding="UTF-8"?>
<svg xmlns="http://www.w3.org/2000/svg" viewBox="0 0 1500 1500">
  <defs>
    <style>
      .cls-1 {
        fill: #e77843;
      }

      .cls-1, .cls-2, .cls-3, .cls-4, .cls-5, .cls-6, .cls-7 {
        stroke-miterlimit: 10;
      }

      .cls-1, .cls-3 {
        stroke-width: 5px;
      }

      .cls-1, .cls-7 {
        stroke: #be526c;
      }

      .cls-2 {
        fill: #fff974;
        stroke: #f7c5b4;
        stroke-width: 16px;
      }

      .cls-3, .cls-5 {
        stroke: #29166f;
      }

      .cls-3, .cls-5, .cls-6 {
        fill: none;
      }

      .cls-4 {
        fill: #f7c5b4;
        stroke: #e8775f;
        stroke-width: 8px;
      }

      .cls-8 {
        fill: #a1db87;
      }

      .cls-8, .cls-9, .cls-10, .cls-11, .cls-12 {
        stroke-width: 0px;
      }

      .cls-9 {
        fill: #fff;
      }

      .cls-10 {
        fill: #db251d;
      }

      .cls-5, .cls-6 {
        stroke-width: 40px;
      }

      .cls-11 {
        fill: #29166f;
      }

      .cls-12 {
        fill: #f0bc23;
      }

      .cls-6 {
        stroke: #93bcd3;
      }

      .cls-7 {
        fill: #f5c490;
        stroke-width: 10px;
      }
    </style>
  </defs>
  <g id="_Белый_эллипс_2022" data-name="Белый эллипс 2022">
    <circle id="_Эллипс_белая_основа" data-name="&amp;lt;Эллипс&amp;gt; белая основа" class="cls-9" cx="752" cy="750" r="735"/>
  </g>
  <g id="_Основа_логотипа_2022" data-name="Основа логотипа 2022">
    <circle id="_Эллипс_голубой_малый" data-name="&amp;lt;Эллипс&amp;gt; голубой малый" class="cls-6" cx="750.5" cy="750.5" r="501.5"/>
    <circle id="_Эллипс_голубой" data-name="&amp;lt;Эллипс&amp;gt; голубой" class="cls-6" cx="750.5" cy="750.5" r="639.5"/>
    <circle id="_Эллипс_синий_тонкий_бортик" data-name="&amp;lt;Эллипс&amp;gt; синий тонкий бортик" class="cls-3" cx="750.5" cy="750.5" r="735"/>
    <circle id="_Эллипс_синий_основной" data-name="&amp;lt;Эллипс&amp;gt; синий основной" class="cls-5" cx="750.99" cy="750.99" r="677.17"/>
  </g>
  <g id="_Содержимое_-_цветок" data-name="Содержимое - цветок">
    <rect class="cls-8" x="733" y="616" width="23" height="150"/>
    <path class="cls-8" d="M753.64,734s17.36-16,49.36-16c27.72,0,121.45,6,189.58-20.98,7.32-2.9,5.05-13.81-2.82-13.59-19.54.56-43.37.65-57.55-1.43-27.2-4-123.92-38-178.56,52Z"/>
    <path class="cls-8" d="M744,735s-36.83-15.24-108.92-19.12c-64.33-3.46-112.66-1.45-146.48-32.24-4.9-4.46-1.66-12.64,4.97-12.64h79.43s101,3,171,64Z"/>
    <path class="cls-7" d="M735.12,628.08c-46.18,25.29-181.89,86.26-146.51-93.19,2.37-12.04-1.73-24.45-10.85-32.67-38.68-34.86-125.27-131.03,56.07-161.79,11.95-2.03,22.02-10,26.86-21.11,21.08-48.33,86.72-165.34,173.61,2.21,5.05,9.75,14.35,16.58,25.16,18.5,49.4,8.79,180.14,43.96,53.83,158.24-10.21,9.23-14.21,23.55-10.12,36.69,15.72,50.51,36.72,167.12-137.13,91.69-9.98-4.33-21.39-3.8-30.93,1.43Z"/>
    <path class="cls-4" d="M734.37,585.25c-37.08,19.68-131.54,58.82-108.42-67.92,2.13-11.68-1.8-23.61-10.47-31.71-30.06-28.1-85.93-95.71,41.72-118.82,11.21-2.03,20.74-9.4,25.45-19.78,17.14-37.78,65.09-116.83,128.08,1.54,4.95,9.3,13.79,15.92,24.14,17.91,39.03,7.51,127.82,34.44,40.58,115.95-9.6,8.97-13.22,22.63-9.59,35.26,11.41,39.73,21.29,118.22-101.57,66.26-9.67-4.09-20.65-3.62-29.92,1.3Z"/>
    <path class="cls-1" d="M734.53,541.94c-26.35,13.38-83.65,34.42-71.04-43.71,1.65-10.21-1.82-20.6-9.2-27.85-20.32-19.99-50.61-61.45,27.19-77,9.86-1.97,18.22-8.44,22.59-17.5,12.6-26.09,43.37-70.94,83.34,1.29,4.52,8.17,12.31,13.99,21.44,15.95,27.2,5.83,78.65,24.16,27.12,74.79-8.14,8-11.3,19.74-8.48,30.8,6.97,27.33,9.3,72.98-66.47,42.2-8.58-3.48-18.25-3.16-26.5,1.03Z"/>
    <circle class="cls-2" cx="744.5" cy="446.5" r="27.5"/>
  </g>
  <g id="_Содержимое_-_книга" data-name="Содержимое - книга">
    <path class="cls-11" d="M727.88,1222.67c-32.73-10.78-111.92-39.31-229.47-39.37-7.12,0-13.19-5.2-14.3-12.24l-59.92-379.83c-1.55-9.81,6.9-17.57,16.79-16.56q299.02,30.34,606.31.24c9.91-.97,18.46,6.52,17.01,16.37l-54.54,371.68c-1,6.8-7.44,12.38-14.31,12.39-118.67.11-207.32,33.82-240.67,46.66-7.34,2.82-19.43,3.11-26.9.65Z"/>
    <path class="cls-12" d="M494.69,707.48c-11.86-1.93-23.91,2.05-32.41,10.7l-21.89,22.26c-7.77,6.98-4.75,20.2,5.34,22.58,1.16.27,2.36.47,3.58.59,296.57,29.37,295.6,31.36,591.12-.24.1-.01.19-.02.29-.03,11.17-1.3,15.08-15.52,7-22.8-1.06-.96-2.09-1.95-3.04-3.02l-16.07-17.91c-8.52-9.49-21.13-13.98-33.58-11.96,0,0-167.78,30.06-223.8,39.55q-26.32,2.99-53.62,0c-55.8-9.51-222.91-39.72-222.91-39.72Z"/>
    <path class="cls-9" d="M559.37,1142.72l102.89-296.94c2.24-6.45,8.32-10.78,15.15-10.78h141.29c6.6,0,12.52,4.04,14.93,10.18l116.32,296.94c4.12,10.51-3.63,21.88-14.93,21.88h-84.23c-7.35,0-13.76-5-15.55-12.14l-12.23-48.82c-1.78-7.09-8.12-12.08-15.43-12.14l-105.73-.81c-7.51-.06-14.06,5.11-15.74,12.43l-11.29,49.04c-1.68,7.28-8.15,12.43-15.62,12.43h-84.68c-11.02,0-18.75-10.86-15.15-21.28Z"/>
    <path class="cls-11" d="M702.08,999.97l18.87-91.97c1.19-5.82,6.32-10,12.26-10h28.36c5.73,0,10.73,3.9,12.14,9.45l23.2,91.97c1.99,7.91-3.98,15.58-12.14,15.58h-70.43c-7.92,0-13.85-7.27-12.26-15.03Z"/>
  </g>
  <g id="_Текст_логотипа_2022_англ_кривые_" data-name="Текст логотипа 2022 (англ) (кривые)">
    <g>
      <path class="cls-10" d="M221.79,723.82l-65.27-4.39-1.29,19.13-13.29-.89,3.44-51.18,13.29.89-1.28,19.08,65.27,4.39-.87,12.97Z"/>
      <path class="cls-10" d="M226.18,674.81l-77.22-15.4,2.54-12.75,30.39,6.06,5.01-25.13-30.39-6.06,2.54-12.75,77.22,15.4-2.54,12.75-33.76-6.73-5.01,25.13,33.76,6.73-2.54,12.75Z"/>
      <path class="cls-10" d="M242.67,602.98l-75.23-23.25,3.84-12.42,75.23,23.25-3.84,12.42Z"/>
      <path class="cls-10" d="M253.05,569.84l-72.44-30.87,4.97-11.66,58.73-3.7-48.38-20.61,4.76-11.17,72.44,30.87-5.14,12.06-57.43,3.79,47.24,20.13-4.76,11.17Z"/>
      <path class="cls-10" d="M283.26,502.84l-67.45-40.62,6.71-11.13,30.03,18.08-16.41-40.69,9.06-15.05,13.73,36.69,54.39,2.83-8.7,14.45-40.89-3.83,5.86,15.87,20.38,12.27-6.71,11.13Z"/>
      <path class="cls-10" d="M323.04,440.88l-62.96-47.29,7.81-10.39,62.96,47.29-7.81,10.39Z"/>
      <path class="cls-10" d="M344.02,413.17l-57.83-53.44,8.6-9.31,56.55,16.28-38.62-35.69,8.24-8.91,57.83,53.44-8.89,9.62-55.35-15.76,37.71,34.85-8.24,8.92Z"/>
      <path class="cls-10" d="M399.86,318.89l-8.4-10.34,21.8-17.71,19.78,24.35c-.1,4.37-1.4,9.12-3.92,14.26-2.52,5.14-5.8,9.35-9.86,12.65-4.95,4.02-10.3,6.35-16.05,6.99-5.75.64-11.71-.57-17.86-3.62s-11.89-7.86-17.22-14.42c-5.46-6.73-9.02-13.39-10.66-19.99-1.65-6.6-1.64-12.53,0-17.79,1.65-5.26,4.96-9.92,9.94-13.96,5.98-4.85,12-7.22,18.07-7.1,6.07.12,12.02,2.71,17.83,7.76l-8.14,10.42c-3.3-2.53-6.63-3.82-9.99-3.86s-6.42,1.07-9.2,3.32c-4.31,3.5-6.44,8.01-6.38,13.52.05,5.52,2.87,11.71,8.44,18.57,5.98,7.37,11.98,11.79,17.98,13.28,5.16,1.3,9.85.23,14.08-3.2,1.97-1.6,3.65-3.73,5.02-6.39,1.37-2.65,2.24-5.46,2.6-8.42l-6.28-7.73-11.59,9.41Z"/>
      <path class="cls-10" d="M449.13,299.77l10.36-6.72,5.88,9.06c3.33,5.14,5.21,9.34,5.62,12.61.53,4.05-.44,7.94-2.92,11.69l-5.42-3.91c1.5-2.17,2.23-4.26,2.21-6.27-.02-2.01-.87-4.36-2.52-7.04l-5,3.25-8.21-12.66Z"/>
      <path class="cls-10" d="M517.53,277.4l-31.83-72.02,40.48-17.89,5.39,12.18-28.59,12.64,7.54,17.05,24.76-10.94,5.38,12.18-24.76,10.94,13.53,30.6-11.89,5.25Z"/>
      <path class="cls-10" d="M576.28,252.76l-22.53-75.45,45.91-13.71,3.81,12.76-33.45,9.99,4.99,16.73,31.09-9.28,3.79,12.71-31.08,9.28,6.12,20.48,34.58-10.33,3.81,12.76-47.04,14.05Z"/>
      <path class="cls-10" d="M642.52,234.47l-12.52-77.74,47.3-7.62,2.12,13.15-34.47,5.55,2.77,17.23,32.03-5.16,2.11,13.1-32.03,5.16,3.4,21.11,35.63-5.74,2.12,13.15-48.47,7.8Z"/>
      <path class="cls-10" d="M711.02,225.04l-2.73-78.05,12.99-.46,2.27,64.74,32.42-1.14.47,13.31-45.41,1.59Z"/>
      <path class="cls-10" d="M774.62,224.48l4.46-78.61,12.98.74-4.46,78.61-12.98-.74Z"/>
      <path class="cls-10" d="M809.3,226.58l12.44-77.75,12.52,2,17.79,56.1,8.31-51.92,11.99,1.92-12.44,77.75-12.94-2.07-17.56-54.81-8.11,50.7-11.99-1.92Z"/>
      <path class="cls-10" d="M918.75,220.88l3.97-12.71,26.81,8.38-9.36,29.94c-3.69,2.33-8.38,3.87-14.05,4.61-5.67.74-11,.33-15.99-1.23-6.08-1.9-10.98-5.07-14.7-9.52-3.71-4.44-6-10.07-6.85-16.88-.85-6.81-.02-14.25,2.5-22.32,2.59-8.27,6.17-14.92,10.76-19.93,4.59-5.02,9.53-8.29,14.83-9.83,5.3-1.53,11.01-1.34,17.13.57,7.35,2.3,12.65,6.01,15.91,11.13,3.26,5.13,4.38,11.51,3.38,19.15l-13.18-1.03c.28-4.15-.48-7.64-2.3-10.46-1.82-2.82-4.44-4.76-7.86-5.83-5.3-1.66-10.23-.94-14.8,2.16-4.57,3.09-8.17,8.86-10.81,17.3-2.83,9.06-3.21,16.5-1.13,22.33,1.77,5.02,5.25,8.34,10.45,9.96,2.43.76,5.12.98,8.1.65,2.97-.32,5.79-1.15,8.46-2.49l2.97-9.5-14.25-4.46Z"/>
      <path class="cls-10" d="M961.89,251.4l11.33,4.93-4.31,9.9c-2.44,5.61-4.92,9.5-7.42,11.65-3.08,2.68-6.87,4.02-11.36,4.02l.27-6.68c2.63.05,4.78-.49,6.45-1.62,1.66-1.13,3.16-3.13,4.48-5.99l-5.47-2.38,6.03-13.84Z"/>
      <path class="cls-10" d="M1059.2,288.1l7.34-11.11,23.44,15.48-17.29,26.17c-4.2,1.22-9.12,1.4-14.78.54-5.65-.86-10.66-2.73-15.02-5.61-5.32-3.51-9.15-7.92-11.48-13.22-2.34-5.3-2.97-11.34-1.9-18.12,1.07-6.78,3.93-13.7,8.59-20.75,4.78-7.23,10.06-12.62,15.87-16.17,5.8-3.55,11.46-5.33,16.97-5.33,5.52,0,10.95,1.76,16.3,5.29,6.42,4.24,10.49,9.28,12.2,15.11,1.71,5.83,1.02,12.27-2.06,19.34l-12.38-4.64c1.42-3.91,1.65-7.47.69-10.68-.97-3.21-2.94-5.81-5.93-7.78-4.63-3.06-9.57-3.74-14.82-2.03-5.25,1.71-10.31,6.25-15.18,13.63-5.23,7.92-7.65,14.96-7.27,21.14.31,5.31,2.74,9.47,7.28,12.47,2.12,1.4,4.65,2.36,7.6,2.87,2.94.51,5.88.5,8.82-.05l5.49-8.31-12.46-8.23Z"/>
      <path class="cls-10" d="M1082.78,340.38l52.32-58.85,20.51,18.24c5.25,4.66,8.52,8.52,9.83,11.58,1.31,3.06,1.53,6.53.65,10.42-.87,3.89-2.93,7.66-6.17,11.3-4.09,4.6-8.49,7.33-13.2,8.18s-9.41-.18-14.12-3.07c.75,3.35,1.02,6.53.81,9.52-.22,2.99-1.2,7.84-2.93,14.53l-4.35,16.69-11.62-10.33,4.33-19.07c1.58-6.89,2.43-11.31,2.56-13.29.12-1.97-.12-3.63-.75-4.98-.62-1.35-2.06-3.02-4.31-5.02l-2.01-1.78-21.84,24.57-9.71-8.64ZM1122.69,315.06l7.23,6.42c4.42,3.93,7.4,6.23,8.95,6.91,1.55.68,3.22.77,5.02.26,1.79-.51,3.56-1.74,5.3-3.7,1.67-1.87,2.63-3.71,2.89-5.52.26-1.8-.06-3.49-.96-5.06-.65-1.1-3.15-3.59-7.52-7.47l-7.63-6.78-13.28,14.93Z"/>
      <path class="cls-10" d="M1164.74,363.05c7.17-6.05,13.96-9.98,20.39-11.78,6.43-1.8,12.22-1.95,17.38-.44,5.16,1.5,9.79,4.69,13.91,9.56,5.96,7.06,8.12,15.08,6.49,24.08-1.63,9-7.43,17.7-17.38,26.11-10.07,8.5-19.92,12.79-29.55,12.87-8.5.1-15.74-3.39-21.72-10.48-6.03-7.14-8.32-14.87-6.85-23.18,1.69-9.49,7.47-18.4,17.34-26.75ZM1173.82,372.96c-6.92,5.85-11,11.55-12.24,17.1-1.24,5.55-.21,10.27,3.07,14.16,3.31,3.92,7.77,5.71,13.38,5.39,5.61-.33,11.97-3.49,19.08-9.5,6.97-5.89,11.07-11.5,12.29-16.83,1.22-5.33.12-10.02-3.31-14.07-3.42-4.05-7.9-5.93-13.41-5.64-5.52.29-11.8,3.42-18.86,9.38Z"/>
      <path class="cls-10" d="M1191.12,458.52l59.57-53.77,6.88,11.47-41.42,36.15,52.48-17.71,7.99,13.32-41.36,38.02,52.31-19.76,6.74,11.24-75.59,27.05-7.14-11.9,43.87-41.35-57.08,19.33-7.25-12.09Z"/>
      <path class="cls-10" d="M1231.78,532.3l71.92-32.06,5.29,11.87-71.92,32.06-5.29-11.87Z"/>
      <path class="cls-10" d="M1245.8,564.08l74.83-24.49,3.94,12.05-41.75,41.47,49.97-16.36,3.78,11.54-74.83,24.49-4.08-12.46,40.71-40.68-48.8,15.97-3.78-11.54Z"/>
      <path class="cls-10" d="M1300.9,658.81l13.12-2.28,4.81,27.68-30.91,5.37c-3.76-2.22-7.27-5.68-10.53-10.38-3.25-4.71-5.33-9.63-6.22-14.78-1.09-6.28-.51-12.09,1.74-17.42,2.25-5.33,6.21-9.94,11.88-13.81,5.67-3.87,12.67-6.53,20.99-7.98,8.54-1.48,16.09-1.33,22.65.46,6.56,1.79,11.73,4.69,15.52,8.7,3.79,4.01,6.23,9.18,7.32,15.49,1.32,7.58.44,14-2.63,19.24-3.07,5.24-8.23,9.16-15.48,11.77l-5.12-12.2c3.82-1.64,6.57-3.92,8.25-6.83s2.21-6.13,1.59-9.65c-.95-5.47-3.84-9.53-8.68-12.17-4.84-2.65-11.62-3.22-20.33-1.7-9.35,1.62-16.14,4.69-20.37,9.21-3.65,3.87-5.01,8.48-4.08,13.85.43,2.5,1.48,5,3.12,7.5,1.65,2.49,3.67,4.62,6.08,6.39l9.81-1.7-2.55-14.71Z"/>
      <path class="cls-10" d="M1278.62,714.43l15.07-.91.75,12.31-15.06.93-.75-12.33ZM1299.05,715.85l39.7-5.59,18.44-1.14.81,13.35-18.44,1.12-40.08-.74-.43-7Z"/>
    </g>
    <g>
      <path class="cls-10" d="M331.14,1076.05l16.81,19.65c4.59,5.37,7.33,9.56,8.21,12.57s.73,6.33-.46,9.95-3.36,6.76-6.48,9.44c-2.88,2.47-6.04,4.05-9.46,4.76-3.43.71-6.57.51-9.44-.58,1.45,3.79,1.63,7.58.54,11.37-1.1,3.79-3.44,7.21-7.03,10.29-4.35,3.72-8.93,5.83-13.73,6.3-4.8.48-8.77-.41-11.93-2.66-2.19-1.57-6.38-5.97-12.57-13.21l-14.28-16.69,59.83-51.19ZM305.83,1114.8l-15.96,13.65,7.87,9.2c3.45,4.03,5.88,6.44,7.28,7.23,1.4.79,3.05,1.04,4.95.76,1.9-.28,3.8-1.23,5.7-2.86,1.95-1.67,3.21-3.46,3.76-5.37.55-1.91.47-3.76-.23-5.54-.7-1.78-2.87-4.8-6.51-9.05l-6.86-8.01ZM329.63,1094.45l-13.83,11.84,5.59,6.53c3.35,3.92,5.49,6.28,6.42,7.09,1.71,1.45,3.56,2.16,5.53,2.12,1.97-.04,3.95-.9,5.94-2.6,1.77-1.51,2.87-3.13,3.31-4.85.44-1.72.32-3.24-.35-4.58-.67-1.33-3.24-4.61-7.71-9.84l-4.89-5.71Z"/>
      <path class="cls-10" d="M372.51,1229.38l-10.6-9.35,7.56-17.11-19.38-17.1-15.8,9.84-10.39-9.17,70.95-42.4,10.35,9.13-32.69,76.16ZM375.14,1190.16l12.65-27.81-25.89,16.12,13.24,11.69Z"/>
      <path class="cls-10" d="M437.99,1180.03l21.59,14.23c5.9,3.89,9.69,7.16,11.37,9.81s2.45,5.88,2.31,9.69c-.15,3.81-1.35,7.43-3.62,10.87-2.09,3.17-4.68,5.57-7.78,7.19-3.1,1.63-6.17,2.31-9.23,2.05,2.45,3.24,3.67,6.83,3.66,10.77s-1.31,7.88-3.91,11.83c-3.15,4.78-6.97,8.07-11.45,9.86-4.48,1.79-8.54,2.04-12.2.74-2.54-.9-7.78-3.97-15.74-9.21l-18.34-12.09,43.33-65.75ZM424.41,1224.27l-11.56,17.54,10.11,6.66c4.43,2.92,7.43,4.57,8.99,4.93s3.22.15,4.97-.64c1.75-.79,3.31-2.23,4.69-4.32,1.42-2.15,2.12-4.21,2.12-6.2s-.58-3.74-1.75-5.26c-1.17-1.52-4.09-3.82-8.76-6.9l-8.81-5.8ZM441.63,1198.12l-10.02,15.2,7.18,4.73c4.31,2.84,7.02,4.52,8.13,5.04,2.05.92,4.02,1.09,5.9.51,1.88-.58,3.54-1.96,4.98-4.15,1.28-1.94,1.89-3.8,1.84-5.57-.05-1.77-.59-3.21-1.6-4.3-1.01-1.1-4.39-3.54-10.13-7.32l-6.28-4.14Z"/>
      <path class="cls-10" d="M465.24,1289.14l36.27-69.89,11.54,5.99-36.27,69.89-11.54-5.99Z"/>
      <path class="cls-10" d="M504.42,1308.79l28.79-73.29,11.8,4.63,5.37,58.6,19.23-48.94,11.3,4.44-28.79,73.29-12.2-4.79-5.42-57.3-18.78,47.79-11.3-4.44Z"/>
      <path class="cls-10" d="M582.34,1336.57l20.98-75.89,12.53,3.46-20.98,75.89-12.53-3.46Z"/>
      <path class="cls-10" d="M670.15,1325.88l11.65,6.9c-3.39,8.36-7.68,14.17-12.87,17.43-5.19,3.25-11.09,4.33-17.69,3.23-8.3-1.38-14.5-5.7-18.58-12.96-4.7-8.37-6.01-18.83-3.92-31.36,2.21-13.25,6.92-23.11,14.15-29.6,6.28-5.63,13.8-7.72,22.57-6.25,7.14,1.19,12.71,4.62,16.7,10.3,2.85,4.03,4.5,9.59,4.96,16.67l-13.33,1.59c-.11-4.34-1.19-7.83-3.24-10.48s-4.72-4.25-8.01-4.79c-4.71-.79-8.89.62-12.54,4.22s-6.27,10.12-7.84,19.55c-1.63,9.78-1.34,16.98.86,21.6,2.21,4.62,5.62,7.31,10.25,8.08,3.39.57,6.54-.26,9.45-2.48s5.39-6.1,7.44-11.64Z"/>
      <path class="cls-10" d="M709.58,1359.38l1.98-78.72,12.99.33-.78,30.98,25.61.64.78-30.98,12.99.33-1.97,78.71-12.99-.33.86-34.42-25.61-.64-.86,34.42-12.99-.33Z"/>
      <path class="cls-10" d="M792.25,1358.88l-6.08-78.51,12.96-1,6.08,78.5-12.96,1Z"/>
      <path class="cls-10" d="M866.13,1323.82l11.99-4.53c3.82,9.42,9.58,13.17,17.3,11.25,3.82-.95,6.58-2.7,8.27-5.24,1.69-2.54,2.17-5.29,1.44-8.24-.43-1.74-1.18-3.12-2.25-4.14-1.07-1.02-2.48-1.73-4.24-2.13-1.76-.39-5.87-.76-12.34-1.11-5.79-.29-10.17-1.08-13.15-2.37-2.98-1.29-5.59-3.3-7.84-6.04-2.25-2.74-3.82-5.9-4.71-9.48-1.04-4.17-1.02-8.15.04-11.96,1.07-3.8,3.05-6.97,5.97-9.5,2.91-2.53,6.82-4.41,11.72-5.62,7.37-1.83,13.61-1.26,18.74,1.71s8.74,8.14,10.83,15.52l-12.5,3.83c-1.58-3.96-3.49-6.53-5.73-7.71-2.25-1.17-5.07-1.34-8.48-.49-3.41.85-5.85,2.21-7.34,4.09-1.49,1.88-1.97,3.88-1.44,5.99.52,2.08,1.79,3.62,3.81,4.62,2.02,1,6.25,1.61,12.69,1.82,6.82.26,11.89,1.06,15.23,2.39,3.34,1.33,6.15,3.42,8.44,6.26,2.29,2.84,4.01,6.56,5.15,11.14,1.65,6.64.99,12.72-1.97,18.25s-8.78,9.38-17.47,11.54c-15.36,3.82-26.08-2.8-32.16-19.84Z"/>
      <path class="cls-10" d="M980.8,1284.18l13.53-.16c1.45,8.91.8,16.1-1.95,21.58-2.74,5.48-7.22,9.46-13.44,11.95-7.81,3.13-15.35,2.66-22.61-1.42-8.37-4.71-14.91-12.97-19.64-24.77-4.99-12.47-6.09-23.35-3.29-32.65,2.44-8.07,7.79-13.76,16.04-17.07,6.72-2.69,13.26-2.65,19.62.12,4.53,1.97,8.83,5.86,12.9,11.67l-10.57,8.28c-2.35-3.65-5.09-6.07-8.21-7.27-3.13-1.2-6.24-1.18-9.33.06-4.43,1.77-7.27,5.15-8.52,10.12-1.25,4.98-.1,11.9,3.45,20.78,3.69,9.21,7.67,15.21,11.96,18.01,4.28,2.8,8.6,3.33,12.96,1.58,3.19-1.28,5.45-3.62,6.79-7.03s1.44-8.01.31-13.81Z"/>
      <path class="cls-10" d="M1031.99,1292.27l-39.29-68.24,11.26-6.49,15.46,26.86,22.2-12.78-15.46-26.86,11.26-6.49,39.29,68.24-11.26,6.49-17.18-29.84-22.2,12.78,17.18,29.84-11.26,6.49Z"/>
      <path class="cls-10" d="M1079.24,1218.46c-5.81-7.37-9.5-14.29-11.08-20.78-1.58-6.48-1.53-12.28.14-17.38,1.67-5.1,5.01-9.63,10.02-13.58,7.25-5.72,15.35-7.61,24.29-5.68,8.94,1.94,17.44,8.02,25.51,18.25,8.16,10.35,12.12,20.34,11.87,29.97-.19,8.49-3.92,15.61-11.21,21.35-7.34,5.79-15.14,7.81-23.4,6.07-9.43-2.01-18.14-8.08-26.14-18.24ZM1089.45,1209.72c5.61,7.11,11.17,11.38,16.68,12.81,5.51,1.42,10.26.56,14.26-2.59,4.03-3.17,5.97-7.57,5.84-13.19-.14-5.62-3.08-12.08-8.85-19.39-5.65-7.17-11.12-11.45-16.4-12.85-5.28-1.4-10.01-.45-14.17,2.83-4.17,3.29-6.2,7.69-6.09,13.21s3.02,11.91,8.74,19.17Z"/>
      <path class="cls-10" d="M1145.45,1164.02c-6.84-6.42-11.53-12.72-14.05-18.89-2.53-6.18-3.34-11.91-2.45-17.21.89-5.3,3.52-10.27,7.88-14.92,6.32-6.74,14.04-9.81,23.17-9.23,9.13.58,18.44,5.33,27.95,14.25,9.61,9.02,15.01,18.31,16.2,27.87,1.08,8.43-1.55,16.02-7.9,22.79-6.39,6.82-13.8,9.98-22.23,9.49-9.62-.58-19.14-5.29-28.57-14.14ZM1154.25,1153.86c6.61,6.2,12.74,9.59,18.4,10.18,5.66.59,10.23-.97,13.71-4.69,3.51-3.74,4.78-8.38,3.81-13.91-.97-5.53-4.85-11.48-11.64-17.85-6.66-6.25-12.7-9.67-18.13-10.27-5.43-.6-9.96,1.04-13.59,4.91-3.63,3.87-4.98,8.53-4.05,13.97.93,5.45,4.76,11.33,11.5,17.65Z"/>
      <path class="cls-10" d="M1235.71,1120.51l-63.66-45.24,7.53-10.59,52.8,37.52,18.79-26.45,10.86,7.72-26.32,37.04Z"/>
    </g>
  </g>
</svg>