<?xml version="1.0" encoding="UTF-8"?>
<svg xmlns="http://www.w3.org/2000/svg" viewBox="0 0 1500 1500">
  <defs>
    <style>
      .cls-1 {
        fill: #e77843;
      }

      .cls-1, .cls-2, .cls-3, .cls-4, .cls-5, .cls-6, .cls-7 {
        stroke-miterlimit: 10;
      }

      .cls-1, .cls-3 {
        stroke-width: 5px;
      }

      .cls-1, .cls-7 {
        stroke: #be526c;
      }

      .cls-2 {
        fill: #fff974;
        stroke: #f7c5b4;
        stroke-width: 16px;
      }

      .cls-3, .cls-5 {
        stroke: #29166f;
      }

      .cls-3, .cls-5, .cls-6 {
        fill: none;
      }

      .cls-4 {
        fill: #f7c5b4;
        stroke: #e8775f;
        stroke-width: 8px;
      }

      .cls-8 {
        fill: #a1db87;
      }

      .cls-8, .cls-9, .cls-10, .cls-11, .cls-12 {
        stroke-width: 0px;
      }

      .cls-9 {
        fill: #fff;
      }

      .cls-10 {
        fill: #db251d;
      }

      .cls-5, .cls-6 {
        stroke-width: 40px;
      }

      .cls-11 {
        fill: #29166f;
      }

      .cls-12 {
        fill: #f0bc23;
      }

      .cls-6 {
        stroke: #93bcd3;
      }

      .cls-7 {
        fill: #f5c490;
        stroke-width: 10px;
      }
    </style>
  </defs>
  <g id="_Белый_эллипс_2022" data-name="Белый эллипс 2022">
    <circle id="_Эллипс_белая_основа" data-name="&amp;lt;Эллипс&amp;gt; белая основа" class="cls-9" cx="752" cy="750" r="735"/>
  </g>
  <g id="_Основа_логотипа_2022" data-name="Основа логотипа 2022">
    <circle id="_Эллипс_голубой_малый" data-name="&amp;lt;Эллипс&amp;gt; голубой малый" class="cls-6" cx="750.5" cy="750.5" r="501.5"/>
    <circle id="_Эллипс_голубой" data-name="&amp;lt;Эллипс&amp;gt; голубой" class="cls-6" cx="750.5" cy="750.5" r="639.5"/>
    <circle id="_Эллипс_синий_тонкий_бортик" data-name="&amp;lt;Эллипс&amp;gt; синий тонкий бортик" class="cls-3" cx="750.5" cy="750.5" r="735"/>
    <circle id="_Эллипс_синий_основной" data-name="&amp;lt;Эллипс&amp;gt; синий основной" class="cls-5" cx="750.99" cy="750.99" r="677.17"/>
  </g>
  <g id="_Содержимое_-_цветок" data-name="Содержимое - цветок">
    <rect class="cls-8" x="733" y="616" width="23" height="150"/>
    <path class="cls-8" d="M753.64,734s17.36-16,49.36-16c27.72,0,121.45,6,189.58-20.98,7.32-2.9,5.05-13.81-2.82-13.59-19.54.56-43.37.65-57.55-1.43-27.2-4-123.92-38-178.56,52Z"/>
    <path class="cls-8" d="M744,735s-36.83-15.24-108.92-19.12c-64.33-3.46-112.66-1.45-146.48-32.24-4.9-4.46-1.66-12.64,4.97-12.64h79.43s101,3,171,64Z"/>
    <path class="cls-7" d="M735.12,628.08c-46.18,25.29-181.89,86.26-146.51-93.19,2.37-12.04-1.73-24.45-10.85-32.67-38.68-34.86-125.27-131.03,56.07-161.79,11.95-2.03,22.02-10,26.86-21.11,21.08-48.33,86.72-165.34,173.61,2.21,5.05,9.75,14.35,16.58,25.16,18.5,49.4,8.79,180.14,43.96,53.83,158.24-10.21,9.23-14.21,23.55-10.12,36.69,15.72,50.51,36.72,167.12-137.13,91.69-9.98-4.33-21.39-3.8-30.93,1.43Z"/>
    <path class="cls-4" d="M734.37,585.25c-37.08,19.68-131.54,58.82-108.42-67.92,2.13-11.68-1.8-23.61-10.47-31.71-30.06-28.1-85.93-95.71,41.72-118.82,11.21-2.03,20.74-9.4,25.45-19.78,17.14-37.78,65.09-116.83,128.08,1.54,4.95,9.3,13.79,15.92,24.14,17.91,39.03,7.51,127.82,34.44,40.58,115.95-9.6,8.97-13.22,22.63-9.59,35.26,11.41,39.73,21.29,118.22-101.57,66.26-9.67-4.09-20.65-3.62-29.92,1.3Z"/>
    <path class="cls-1" d="M734.53,541.94c-26.35,13.38-83.65,34.42-71.04-43.71,1.65-10.21-1.82-20.6-9.2-27.85-20.32-19.99-50.61-61.45,27.19-77,9.86-1.97,18.22-8.44,22.59-17.5,12.6-26.09,43.37-70.94,83.34,1.29,4.52,8.17,12.31,13.99,21.44,15.95,27.2,5.83,78.65,24.16,27.12,74.79-8.14,8-11.3,19.74-8.48,30.8,6.97,27.33,9.3,72.98-66.47,42.2-8.58-3.48-18.25-3.16-26.5,1.03Z"/>
    <circle class="cls-2" cx="744.5" cy="446.5" r="27.5"/>
  </g>
  <g id="_Содержимое_-_книга" data-name="Содержимое - книга">
    <path class="cls-11" d="M727.88,1222.67c-32.73-10.78-111.92-39.31-229.47-39.37-7.12,0-13.19-5.2-14.3-12.24l-59.92-379.83c-1.55-9.81,6.9-17.57,16.79-16.56q299.02,30.34,606.31.24c9.91-.97,18.46,6.52,17.01,16.37l-54.54,371.68c-1,6.8-7.44,12.38-14.31,12.39-118.67.11-207.32,33.82-240.67,46.66-7.34,2.82-19.43,3.11-26.9.65Z"/>
    <path class="cls-12" d="M494.69,707.48c-11.86-1.93-23.91,2.05-32.41,10.7l-21.89,22.26c-7.77,6.98-4.75,20.2,5.34,22.58,1.16.27,2.36.47,3.58.59,296.57,29.37,295.6,31.36,591.12-.24.1-.01.19-.02.29-.03,11.17-1.3,15.08-15.52,7-22.8-1.06-.96-2.09-1.95-3.04-3.02l-16.07-17.91c-8.52-9.49-21.13-13.98-33.58-11.96,0,0-167.78,30.06-223.8,39.55q-26.32,2.99-53.62,0c-55.8-9.51-222.91-39.72-222.91-39.72Z"/>
    <path class="cls-9" d="M559.37,1142.72l102.89-296.94c2.24-6.45,8.32-10.78,15.15-10.78h141.29c6.6,0,12.52,4.04,14.93,10.18l116.32,296.94c4.12,10.51-3.63,21.88-14.93,21.88h-84.23c-7.35,0-13.76-5-15.55-12.14l-12.23-48.82c-1.78-7.09-8.12-12.08-15.43-12.14l-105.73-.81c-7.51-.06-14.06,5.11-15.74,12.43l-11.29,49.04c-1.68,7.28-8.15,12.43-15.62,12.43h-84.68c-11.02,0-18.75-10.86-15.15-21.28Z"/>
    <path class="cls-11" d="M702.08,999.97l18.87-91.97c1.19-5.82,6.32-10,12.26-10h28.36c5.73,0,10.73,3.9,12.14,9.45l23.2,91.97c1.99,7.91-3.98,15.58-12.14,15.58h-70.43c-7.92,0-13.85-7.27-12.26-15.03Z"/>
  </g>
  <g id="_Текст_логотипа_2022_бел_кривые_" data-name="Текст логотипа 2022 (бел) (кривые)">
    <g>
      <path class="cls-10" d="M220.31,738.74l-78.45-6.72,1.66-19.42,54.57-7.11-52.57-16.19,1.67-19.51,78.45,6.72-1.04,12.09-61.81-5.3,60.71,18.12-1.07,12.5-62.9,7.43,61.81,5.3-1.04,12.09Z"/>
      <path class="cls-10" d="M228.62,655.68l-76.16-19.98,3.3-12.57,30.29,7.94,4.69-17.87c1.74-6.65,5.27-11.36,10.57-14.14,5.3-2.77,11.45-3.24,18.44-1.41,5.71,1.5,10.49,4.44,14.32,8.81,3.83,4.37,4.69,10.6,2.57,18.67l-8.01,30.55ZM244.92,593.55l-76.16-19.98,3.3-12.57,76.17,19.98-3.3,12.57ZM198.93,634.46l20.11,5.27,3.48-13.27c.91-3.46,1.33-6.02,1.26-7.68-.06-1.66-.81-3.3-2.24-4.91-1.43-1.61-3.27-2.71-5.52-3.3-6.75-1.77-11.25,1.6-13.48,10.1l-3.62,13.79Z"/>
      <path class="cls-10" d="M246.41,512.39l9.6-9.54c7.24,5.38,11.79,11,13.64,16.84,1.85,5.84,1.41,11.82-1.32,17.94-3.42,7.69-9.16,12.6-17.21,14.74-9.28,2.45-19.73,1.09-31.34-4.09-12.26-5.46-20.63-12.51-25.1-21.13-3.87-7.49-4-15.3-.38-23.42,2.95-6.61,7.67-11.14,14.17-13.58,4.62-1.75,10.42-1.95,17.38-.61l-1.81,13.3c-4.23-.98-7.88-.81-10.96.51s-5.29,3.5-6.65,6.55c-1.94,4.36-1.63,8.76.94,13.2,2.57,4.44,8.22,8.61,16.95,12.5,9.06,4.04,16.1,5.57,21.12,4.59,5.02-.98,8.49-3.61,10.4-7.89,1.4-3.14,1.39-6.4-.03-9.77-1.42-3.37-4.55-6.75-9.39-10.12Z"/>
      <path class="cls-10" d="M306.85,464.1l-55.54-34.57-10.22,16.42,28.57,17.78c7.44,4.63,12.81,8.28,16.11,10.94,3.29,2.66,5.33,5.43,6.12,8.3.78,2.87-.03,6.24-2.43,10.1-.7,1.12-2.3,3.36-4.8,6.69l-10.53-6.56,1.5-2.42c1.48-2.37,2.06-4.17,1.75-5.4-.31-1.23-2-2.8-5.07-4.71l-49.39-30.73,23.95-38.49,66.85,41.6-6.87,11.04Z"/>
      <path class="cls-10" d="M327.16,435.34l-62.34-48.1,7.94-10.29,62.34,48.1-7.94,10.29Z"/>
      <path class="cls-10" d="M347.97,408.08l-56.63-54.71,13.54-14.02,46.83,28.91-30.58-45.73,13.61-14.09,56.63,54.7-8.43,8.73-44.62-43.1,35.68,52.36-8.71,9.02-53.5-33.91,44.62,43.1-8.43,8.73Z"/>
      <path class="cls-10" d="M398.37,338l9.51-7.88,6.89,8.31c3.91,4.71,6.26,8.67,7.05,11.88,1,3.96.49,7.94-1.54,11.95l-5.84-3.26c1.24-2.33,1.72-4.49,1.47-6.48-.26-2-1.37-4.23-3.32-6.7l-4.59,3.8-9.63-11.62Z"/>
      <path class="cls-10" d="M513.84,278.59l-12.23,7.07-13.82-12.61-22.38,12.94,4.3,18.11-12,6.94-17.64-80.75,11.95-6.91,61.81,55.22ZM477.48,263.62l-22.34-20.83,7.05,29.67,15.29-8.84Z"/>
      <path class="cls-10" d="M568.9,241.22l5.18-2.1,11.46,28.22-9.9,4.02-6.45-15.88-37.77,15.33,6.44,15.88-9.9,4.02-11.46-28.22,4.98-2.02c-.12-5.9-1.11-12.69-2.99-20.35-1.87-7.66-5.72-18.66-11.54-32.99l-3.96-9.75,41.31-16.77,24.61,60.62ZM537.25,197.83l-17.82,7.23c8.73,21.51,13.62,38.27,14.67,50.27l22.74-9.23-19.6-48.27Z"/>
      <path class="cls-10" d="M582.2,197.57l-6.91-27.28,12.6-3.19,5.13,20.25c1.07,4.23,2.05,7.34,2.94,9.31.89,1.97,2.35,3.46,4.4,4.45,2.04,1,4.85,1.04,8.43.14,5.34-1.35,9.26-3.82,11.75-7.41l-8.34-32.91,12.6-3.19,19.34,76.33-12.6,3.19-7.78-30.72c-4.28,3.97-8.92,6.58-13.91,7.85-6.94,1.76-12.83,1.17-17.68-1.75-4.84-2.93-8.17-7.95-9.97-15.07Z"/>
      <path class="cls-10" d="M680.27,206.14l-30.3-53.27,14.51-1.73,19.74,38.81,8.09-42.13,13.39-1.6-14.53,61.99c-1.8,7.57-3.78,12.98-5.92,16.23-2.14,3.25-4.96,5.08-8.44,5.5-3.35.4-6.38.44-9.09.11l-1.39-11.68c2.15-.11,3.79-.23,4.89-.37,3.13-.37,5.26-1.3,6.36-2.76,1.11-1.47,2-4.5,2.68-9.1Z"/>
      <path class="cls-10" d="M731.41,144.86l25.86.42c7.06.11,12.01.84,14.86,2.17,2.85,1.34,5.23,3.65,7.15,6.94,1.92,3.29,2.84,6.99,2.78,11.11-.06,3.79-.96,7.21-2.7,10.24-1.74,3.03-3.97,5.26-6.69,6.69,3.8,1.42,6.76,3.8,8.87,7.13,2.11,3.33,3.12,7.36,3.05,12.08-.09,5.73-1.55,10.55-4.37,14.46-2.82,3.91-6.12,6.3-9.89,7.17-2.62.6-8.7.83-18.22.67l-21.96-.36,1.28-78.73ZM743.68,189.48l-.34,21,12.11.2c5.31.09,8.72-.13,10.24-.66,1.52-.53,2.8-1.6,3.85-3.21,1.05-1.61,1.59-3.66,1.63-6.16.04-2.57-.47-4.7-1.54-6.37-1.07-1.68-2.5-2.85-4.3-3.5-1.8-.65-5.5-1.03-11.1-1.12l-10.54-.17ZM744.19,158.18l-.29,18.21,8.59.14c5.16.08,8.34.05,9.56-.11,2.22-.32,3.98-1.23,5.25-2.74,1.28-1.5,1.94-3.56,1.98-6.17.04-2.33-.44-4.22-1.44-5.69-1-1.47-2.22-2.39-3.66-2.77-1.45-.38-5.6-.63-12.48-.74l-7.52-.12Z"/>
      <path class="cls-10" d="M861.3,234.58l-13.98-2.09-2.96-18.47-25.56-3.82-7.91,16.85-13.71-2.05,36.5-74.16,13.65,2.04,13.97,81.7ZM842.18,200.23l-4.5-30.21-12.97,27.61,17.47,2.61Z"/>
      <path class="cls-10" d="M876.21,238.45l22-75.6,46,13.39-3.72,12.79-33.52-9.76-4.88,16.76,31.15,9.07-3.71,12.74-31.15-9.07-5.97,20.53,34.66,10.09-3.72,12.79-47.14-13.72Z"/>
      <path class="cls-10" d="M941.51,258.49l32.66-71.65,17.74,8.09-11.62,53.79,32.9-44.09,17.82,8.12-32.66,71.65-11.04-5.03,25.73-56.45-37.44,51.11-11.41-5.2,14.1-61.75-25.73,56.45-11.04-5.03Z"/>
      <path class="cls-10" d="M1024.39,282.63l10.6,6.35-5.54,9.26c-3.15,5.25-6.1,8.79-8.85,10.6-3.4,2.26-7.33,3.1-11.78,2.53l1.13-6.59c2.6.39,4.8.13,6.6-.78,1.79-.91,3.53-2.7,5.21-5.36l-5.12-3.06,7.75-12.95Z"/>
      <path class="cls-10" d="M1074.52,334.01l50.88-60.09,15.99,13.54c5.96,5.04,9.61,8.63,10.95,10.75,2.14,3.41,2.87,7.43,2.2,12.07-.67,4.64-3.03,9.35-7.08,14.14-3.68,4.35-7.58,7.29-11.71,8.84-4.13,1.55-7.92,1.88-11.39.98-3.47-.89-8.21-3.89-14.22-8.98l-6.52-5.52-19.19,22.67-9.92-8.4ZM1126.72,292.48l-14.47,17.09,5.51,4.66c3.7,3.13,6.43,5,8.2,5.6,1.77.6,3.65.59,5.65-.05,2-.64,3.83-1.94,5.5-3.91,1.69-2,2.68-4.06,2.96-6.17.28-2.11-.02-3.95-.92-5.5-.89-1.56-3.42-4.1-7.58-7.62l-4.85-4.1Z"/>
      <path class="cls-10" d="M1165.15,422.59l-9.47-10.49,9.44-16.15-17.33-19.18-16.81,7.99-9.29-10.28,75.28-34.13,9.26,10.24-41.08,71.99ZM1172.19,383.91l15.7-26.2-27.54,13.1,11.84,13.1Z"/>
      <path class="cls-10" d="M1221.45,452.85l3.05,13.19c-8.39,3.32-15.56,4.22-21.5,2.72-5.94-1.51-10.79-5.03-14.55-10.57-4.73-6.96-5.88-14.43-3.45-22.39,2.81-9.18,9.48-17.34,19.99-24.48,11.11-7.54,21.5-10.94,31.19-10.19,8.41.66,15.11,4.66,20.11,12.02,4.07,5.99,5.43,12.39,4.08,19.2-.95,4.85-3.83,9.88-8.64,15.1l-10.35-8.55c3.06-3.08,4.84-6.27,5.34-9.58.5-3.31-.19-6.35-2.06-9.1-2.68-3.95-6.59-6-11.71-6.16-5.13-.16-11.65,2.45-19.56,7.82-8.21,5.57-13.22,10.75-15.03,15.53-1.82,4.78-1.41,9.11,1.23,13,1.93,2.84,4.7,4.55,8.32,5.13,3.61.57,8.13-.31,13.56-2.65Z"/>
      <path class="cls-10" d="M1249.06,536.98l2.34,4.77-27.33,13.43-4.71-9.59,15.38-7.56-20.28-41.26,70.67-34.73,5.73,11.67-58.71,28.86,11.18,22.75,58.71-28.86,5.73,11.67-58.71,28.86Z"/>
      <path class="cls-10" d="M1245.66,564.02l74.72-24.84,15.12,45.46-12.64,4.2-11.01-33.13-16.56,5.51,10.24,30.78-12.59,4.19-10.24-30.78-20.29,6.74,11.39,34.25-12.64,4.2-15.49-46.58Z"/>
      <path class="cls-10" d="M1266.27,629.15l77.52-13.83,3.42,19.19-50.87,21,54.97,2.02,3.44,19.28-77.52,13.83-2.13-11.95,61.07-10.9-63.33-1.77-2.2-12.35,58.83-23.47-61.07,10.9-2.13-11.95Z"/>
      <path class="cls-10" d="M1278.62,714.38l15.07-.91.75,12.31-15.06.93-.75-12.33ZM1299.04,715.79l39.69-5.59,18.44-1.14.81,13.35-18.44,1.12-40.08-.73-.43-7Z"/>
    </g>
    <g>
      <path class="cls-10" d="M334.67,1196.36l51.35-59.69,36.6,31.49-8.69,10.1-26.75-23.01-11.74,13.64,14.01,12.05c5.29,4.55,8.03,9.78,8.2,15.67.18,5.89-2.07,11.55-6.74,16.98-4.06,4.72-8.93,7.79-14.6,9.19-5.67,1.4-11.6-.56-17.79-5.88l-23.86-20.53ZM366.77,1178.98l-13.56,15.76,10.4,8.95c2.71,2.33,4.82,3.83,6.34,4.5s3.31.73,5.36.18,3.84-1.71,5.36-3.47c4.6-5.35,3.57-10.89-3.1-16.62l-10.81-9.3Z"/>
      <path class="cls-10" d="M449.89,1281.63l-11.9-7.63,4.87-18.06-21.76-13.95-14.12,12.13-11.66-7.48,63.67-52.71,11.62,7.45-20.72,80.25ZM446.52,1242.46l8.27-29.41-23.14,19.87,14.87,9.54Z"/>
      <path class="cls-10" d="M474.57,1294.57l32.77-71.6,43.91,20.1-5.54,12.11-32.09-14.69-7.49,16.36,16.8,7.69c6.35,2.91,10.43,7.16,12.23,12.77,1.8,5.61,1.21,11.67-1.77,18.18-2.59,5.67-6.42,9.96-11.48,12.88-5.06,2.92-11.3,2.68-18.72-.71l-28.62-13.1ZM500.58,1268.97l-8.65,18.9,12.48,5.71c3.25,1.49,5.7,2.34,7.34,2.56,1.65.22,3.38-.21,5.2-1.31,1.82-1.1,3.21-2.7,4.18-4.82,2.94-6.41.41-11.45-7.59-15.11l-12.97-5.93Z"/>
      <path class="cls-10" d="M550.51,1326.44l25.14-74.62,12.32,4.15-25.14,74.62-12.32-4.15Z"/>
      <path class="cls-10" d="M592.16,1339.84l17.21-76.84,12.68,2.84-6.77,30.24,25,5.6,6.77-30.24,12.68,2.84-17.21,76.84-12.68-2.84,7.52-33.6-25-5.6-7.52,33.6-12.68-2.84Z"/>
      <path class="cls-10" d="M673.48,1355.36l9.13-78.21,12.91,1.51-9.13,78.21-12.91-1.51Z"/>
      <path class="cls-10" d="M768.16,1347.26l5.32.09-.49,30.45-10.69-.17.28-17.13-45.97-.75,1.28-78.73,13,.21-1.06,65.41,25.35.41,1.06-65.41,13,.21-1.06,65.41Z"/>
      <path class="cls-10" d="M803.02,1358.39l-9.3-78.19,12.91-1.54,3.96,33.28c2.84-.7,4.71-1.9,5.63-3.62.91-1.71,1.92-5.7,3.01-11.96,1.09-6.26,2.45-10.88,4.08-13.87,1.63-2.99,3.51-4.92,5.64-5.78,2.13-.87,5.87-1.74,11.21-2.63l1.4,11.73-1.81.22c-3.66.43-6.03,1.58-7.12,3.42-1.09,1.84-2.04,5.27-2.84,10.26s-1.6,8.35-2.38,10.06c-.79,1.71-2.17,3.47-4.16,5.29,2.98.84,5.53,2.47,7.64,4.89,2.11,2.43,4.79,6.58,8.05,12.47l11.29,20.35-15.19,1.81-10.14-19.29c-2.57-4.92-4.68-8.32-6.33-10.2-1.65-1.88-3.88-2.68-6.7-2.42l4.07,34.19-12.91,1.54Z"/>
      <path class="cls-10" d="M933.66,1333.24l-13.69,3.5-9.9-15.87-25.04,6.41-.75,18.6-13.42,3.44,4.83-82.52,13.38-3.42,44.6,69.86ZM902.71,1309.01l-15.88-26.1-1.23,30.48,17.11-4.38Z"/>
      <path class="cls-10" d="M995.75,1309.18l-12.57-30.37-2.48,1.03c-2.78,1.15-4.68,2.26-5.71,3.33-1.03,1.07-1.81,2.55-2.34,4.46-.53,1.91-1.18,6.37-1.95,13.39l-2.16,19.44-14.37,5.95,1.37-17.19c.56-6.89,1.22-11.79,2-14.69.78-2.9,2.07-5.81,3.88-8.73-5.4,1.19-10.18.61-14.35-1.73-4.17-2.34-7.43-6.36-9.79-12.05-1.86-4.5-2.57-8.73-2.12-12.7.45-3.96,1.8-7.18,4.03-9.63,2.24-2.46,6.6-5.03,13.08-7.71l25.36-10.5,30.12,72.75-12.01,4.97ZM970.72,1248.74l-9.43,3.9c-5.39,2.23-8.58,3.76-9.55,4.59-1.37,1.19-2.23,2.68-2.57,4.46-.34,1.79-.04,3.84.92,6.16,1,2.42,2.26,4.16,3.79,5.23,1.53,1.07,3.14,1.54,4.83,1.4,1.69-.14,5.26-1.33,10.72-3.59l8.93-3.7-7.64-18.46Z"/>
      <path class="cls-10" d="M1091.11,1221.4l13.18-3.1c3.35,8.38,4.29,15.54,2.8,21.48-1.48,5.94-4.99,10.81-10.51,14.59-6.94,4.76-14.4,5.94-22.38,3.54-9.19-2.77-17.38-9.4-24.56-19.89-7.59-11.08-11.03-21.46-10.32-31.14.62-8.41,4.6-15.13,11.93-20.16,5.97-4.09,12.37-5.48,19.18-4.15,4.85.93,9.9,3.79,15.13,8.58l-8.51,10.39c-3.09-3.05-6.29-4.82-9.6-5.3-3.31-.49-6.34.21-9.1,2.1-3.94,2.7-5.97,6.61-6.11,11.74-.14,5.13,2.49,11.64,7.9,19.53,5.61,8.18,10.8,13.17,15.59,14.97,4.79,1.8,9.12,1.37,12.99-1.28,2.84-1.94,4.53-4.72,5.09-8.34.56-3.62-.34-8.13-2.7-13.54Z"/>
      <path class="cls-10" d="M1144.62,1217.52l-54.5-56.83,9.38-9,45.28,47.22,13.57-13.01-45.28-47.22,9.38-9,45.28,47.22,13.88-13.31-45.28-47.22,9.38-9,54.5,56.83-55.59,53.31Z"/>
    </g>
  </g>
</svg>